<svg xmlns="http://www.w3.org/2000/svg" width="119.129" height="76.74" viewBox="0 0 119.129 76.74"><defs><style>.a{fill:#6e2169;fill-rule:evenodd;}</style></defs><g transform="translate(0 0)"><g transform="translate(0 0)"><g transform="translate(58.03 19.478)"><path class="a" d="M3961.229,5977.906a2.8,2.8,0,0,1,1.362-.124l3.961.042v5.241c-.413.413-2.022.166-2.641.166l-2.517-.042s-.083,0-.083-.041-.041,0-.083-.042-.041-.042-.082-.247v-4.789c0-.041.041-.041.041-.082C3961.188,5977.906,3961.229,5977.906,3961.229,5977.906Zm-3.755-.083c.123,1.156.041,2.888.041,4.085,0,1.527.537,1.279-2.765,1.279-2.023,0-2.642.248-2.724-.412l.082-4.952A23.25,23.25,0,0,1,3957.475,5977.824Zm3.755-7.015c.207-.125-.247-.042.248-.125h.372c1.031-.041,4.457-.165,4.952.125l-.041,5.282h-5.448c-.413-.372-.165-1.981-.165-2.641Zm-9.037,0a27.281,27.281,0,0,1,5.2,0c.083.124.041-.042.083.247v4.994a29.118,29.118,0,0,1-5.365.042Zm-20.716,9a40.266,40.266,0,0,1,3.343-2.641l.083,7.387c0,1.981-.207,11.6.371,12.587.578.619,12.257.371,14.072.371-.165-.536-.99-1.526-.866-1.857.742-.371,4.333-.247,5.53-.289l.206-5.943,10.523.042.166,5.9,5.571.247c-.083.579-.949,1.279-.784,1.775,1.4.372,12.091.124,13.948-.123.784-3.178-.206-15.889.5-20.181a16.088,16.088,0,0,1,1.65,1.363c.371.33.536.495.825.742a7.5,7.5,0,0,1,.743.619,31.721,31.721,0,0,0,2.517-3.8l-11.348-9.408c-.372-.33-.7-.5-1.032-.826l-4.663-3.879c-.33-.247-.66-.577-.99-.825-.33-.33-.578-.454-.908-.743-.7-.619-1.2-1.072-1.9-1.65l-3.8-3.1c-.743-.619-5.282-4.375-5.778-4.581a15.606,15.606,0,0,0-2.063,1.485c-.619.537-1.279,1.033-1.939,1.568-1.279,1.033-2.559,2.064-3.838,3.136-4.994,4.169-10.235,8.419-15.1,12.628l-3.838,3.178c-.619.495-1.238,1.073-1.857,1.609s-1.321,1.073-1.816,1.528Z" transform="translate(-3928.904 -5940.312)"/><path class="a" d="M3926.693,5717.131c0,1.651-.082,6.685.165,7.882.619-.166,3.013-2.477,3.755-3.054,1.321-1.032,2.476-2.1,3.838-3.177l11.348-9.368c3.136-2.517,6.4-5.324,9.574-7.8l1.981-1.486c1.114.743,5.035,4.127,6.561,5.324l9.451,7.882c2.558,2.229,5.818,4.786,8.418,7.015.743.619,5.365,4.58,5.819,4.7a70.432,70.432,0,0,0,.124-7.881c-.578-.372-3.054-2.518-3.756-3.1l-10.482-8.707c-3.425-2.971-6.974-5.737-10.44-8.708L3957.23,5692a13.908,13.908,0,0,0-1.939,1.445Z" transform="translate(-3926.68 -5692)"/><path class="a" d="M4491,6606.746v.5l5.158-.042v-5.158l-.454-.042H4491Z" transform="translate(-4467.712 -6564.447)"/><path class="a" d="M4489.083,6428.124h5.2l-.041,5.2h-5.158Zm5.2,0a27.437,27.437,0,0,0-5.2,0l-.083,5.282a28.986,28.986,0,0,0,5.365-.041v-4.994C4494.323,6428.083,4494.365,6428.248,4494.282,6428.124Z" transform="translate(-4465.795 -6397.627)"/><path class="a" d="M4706.453,6431.968l-.042-.124-.041-5.159h5.571c-.5-.289-3.92-.165-4.952-.124h-.372c-.5.083-.042,0-.248.124l-.082,2.642C4706.289,6429.987,4706.041,6431.6,4706.453,6431.968Z" transform="translate(-4674.045 -6396.188)"/><path class="a" d="M4708.083,6608.2c.041.042.083,0,.083.042s.083.041.083.041l2.518.042c.618,0,2.228.248,2.641-.166h-.166l-5.158.041V6603s-.042,0-.042.083c0,.042-.042.042-.042.082v4.788C4708.042,6608.158,4708.042,6608.158,4708.083,6608.2Z" transform="translate(-4675.757 -6565.405)"/><path class="a" d="M4711,6436.159l.042.123h5.448l.041-5.282h-.124v5.159Z" transform="translate(-4678.633 -6400.504)"/><path class="a" d="M4715.158,6604.9h.166v-5.241l-3.962-.042a2.8,2.8,0,0,0-1.362.124h5.241A42.056,42.056,0,0,1,4715.158,6604.9Z" transform="translate(-4677.674 -6562.15)"/></g><path class="a" d="M2532.755,5270.429c.083-.124,0-.165.578-.206l4.5.041c2.229,0,3.3.288,2.6-.661l-4.5-6.974c.289,0,1.4.5,2.022.577l4.292,1.032c.7.206,1.279.413,1.981.619a10.031,10.031,0,0,1,3.343,1.857c.619.577,1.9,2.435,1.238,3.755-1.032,2.187-4.663,3.054-6.974,3.508-.7.123-1.527.248-2.229.412a53.838,53.838,0,0,1-6.726.537c-.289-.207-.165.041-.165-.5Zm15.352-39a7.49,7.49,0,0,0,2.724.124,40.771,40.771,0,0,1-2.27,3.425c-.454.619-.825,1.073-1.2,1.692-.33.5-1.114,1.2-.908,1.815a19.9,19.9,0,0,0,3.136.041c-.371.785-3.095,4.787-3.755,5.819-.248.371-.5.5-.289.825.619.33,5.654,0,6.933.124.083,1.733,0,3.508,0,5.241-.825,0-5.035.577-5.86.742l-4.869.949c-.371.083-.5.165-.908.247-.536.083-1.4.289-1.9.413l-1.857.536c-.743-1.031-5.282-9.986-6.355-11.678-.578.041-.5.082-.7.536a21.371,21.371,0,0,1-1.362,2.518c-1.568,2.724-2.889,5.529-4.5,8.294-.206.33-.743,1.032-.7,1.486.041.619,2.27.247,3.054.289-.248.577-2.187,3.177-2.641,3.8-.412.619-.866,1.238-1.32,1.9-.207.289-.413.66-.66.949-.165.247-.7.66-.413.99.784.33,2.682-.123,3.714.124-.371.371-2.6,3.879-3.054,4.622a10.442,10.442,0,0,1-.619.99c-.371.5-1.2,1.485-1.031,2.063a58.858,58.858,0,0,0,6.685.083c1.362-.042,1.4-.867,1.238,4.786-.577.372-1.4.5-2.146.866a8.28,8.28,0,0,0-3.343,2.6c-3.755,5.282,5.365,8.254,9.161,8.584l10.4,1.485c1.115.206,8.955.454,9.863.413l2.889-.083a5.105,5.105,0,0,0,.825-.083l4.209-.206c.536-.041.866-.165,1.279-.206.619-.041,1.155-.041,1.692-.083l8.914-1.485c1.486-.33,2.889-.5,4.292-.949,1.4-.412,2.765-.7,4.127-1.2,1.156-.453,2.352-.907,3.508-1.443a14.666,14.666,0,0,1,1.032-26.494l-.289-.206a30.433,30.433,0,0,0-9.615-4.581l-.042-2.641c.042-.908-.206-.66,1.94-.66,4.209,0,3.838.5,2.022-2.519-.289-.453-.577-.865-.866-1.278l-.825-1.32c1.775-.083,3.054.412,1.775-1.238-.165-.248-.248-.372-.413-.66-.5-.742-2.187-2.766-2.27-3.384,2.311.247,2.063,0,1.4-1.32-1.114-2.271-2.476-4.5-3.673-6.728-.206-.33-.165-.412-.33-.66-.7.041-.866.867-1.486,1.98-.371.7-3.384,5.943-3.425,6.479,0,.66,1.32.33,1.857.454l-2.517,3.59c-.248.371-.743.867-.7,1.362a10.52,10.52,0,0,0,2.352.124c-.536.99-1.9,2.971-2.558,4-1.28,1.857.206.784,4.828,1.156l.041,1.774c-.041,1.031-.578.577-1.9.289-.371-.083-.908-.083-1.321-.165a57.376,57.376,0,0,0-10.977-.536c-1.609,0-1.733.247-1.733-.537v-3.838c0-.33-.165-.454.248-.536.867-.248,6.355.288,6.644-.207.247-.412-4.044-5.9-4.044-6.685l2.6.04c1.156,0,.042-1.2-.206-1.567l-2.435-3.425a8.126,8.126,0,0,1-1.2-1.816c.5-.164,1.9.083,2.6-.082.124-.619-.991-2.352-1.362-2.972l-3.177-5.818c-.124-.248-.248-.454-.371-.7-.33-.62-.826-1.94-1.445-2.063C2553.678,5220.907,2548.148,5231.059,2548.107,5231.431Z" transform="translate(-2520.477 -5220)"/></g></g></svg>