<svg xmlns="http://www.w3.org/2000/svg" width="43.051" height="34.515" viewBox="0 0 43.051 34.515"><defs><style>.a{opacity:0.5;}.b{fill-rule:evenodd;}</style></defs><g class="a"><path class="b" d="M3711.887,2418.192c.127,3.644.677,6.229-1.862,10.3a13.919,13.919,0,0,1-6.9,5.636c-7.83,2.966-14.052-1.568-16.888-6.1-5.375-8.432,1.058-21.4,12.7-20.848,5.376.254,7.958,3.263,8.762,3.6a4.226,4.226,0,0,0,2.074-2.542,10.5,10.5,0,0,1-1.143-.89c-2.328-2.034-6.6-3.39-9.862-3.475a17.24,17.24,0,0,0-15.322,26.018,16.671,16.671,0,0,0,8.253,7.161c7.831,3.305,16.635.254,21.248-6.991,2.328-3.687,2.751-7.246,2.2-12.289A7.435,7.435,0,0,0,3711.887,2418.192Z" transform="translate(-3681.032 -2403.864)"/><path class="b" d="M4025.855,2417.448l-.3-.255.255-.256c.042-1.362.894-3.448,1.106-4.937l-7.406,4.128c-.681.468-.6,1.575-2.256,3.49-1.064,1.234-6.895,4.3-8.9,5.405-.766.426-1.021.894-1.83.553-3.533-1.447-6.47,1.788-5.022,4.852,1.532,3.277,6.086,2.3,6.81-.468.341-1.32-.127-1.192,1.064-1.83l5.405-2.979c6.554-3.831,6.682-1.277,8.81-2.256,1.021-.51,2.554-1.447,3.66-2.085l2.682-1.49a1.782,1.782,0,0,0,.809-.553Z" transform="translate(-3987.699 -2411.654)"/><path class="b" d="M3862.292,2573.547c-.809.38-1.447.8-2.341,1.267-1.532.845-.766.381-1.362,2.07a7.133,7.133,0,0,1-12.683,1.563c-3.661-5.239,1.447-12.21,7.448-10.816,1.7.422.894.676,2.426-.169a13.392,13.392,0,0,0,2.17-1.31c-1.447-1.394-4.554-2.155-7.107-1.944-8.172.719-11.833,10.056-7.874,15.844a8.713,8.713,0,0,0,2.085,2.451,10.858,10.858,0,0,0,2.724,1.648C3854.674,2586.9,3862.547,2582.5,3862.292,2573.547Z" transform="translate(-3834.602 -2557.351)"/><path class="b" d="M4575.3,2528.511l-.042-.511-.255.255Z" transform="translate(-4537.142 -2522.717)"/></g></svg>