<svg xmlns="http://www.w3.org/2000/svg" width="29.107" height="22.602" viewBox="0 0 29.107 22.602"><g transform="translate(0 0)"><path d="M38.179,20.19l-6.472-6.471V9.45a.963.963,0,1,0-1.926,0v2.343L25.216,7.227a.963.963,0,0,0-1.362,0L17.88,13.2a.963.963,0,1,0,1.362,1.361l5.294-5.293L36.819,21.553a.963.963,0,1,0,1.36-1.364Z" transform="translate(-9.355 -6.945)"/><path d="M38.074,25.676,27.865,15.466a.962.962,0,0,0-1.362,0L22.58,19.389a8.708,8.708,0,0,1,4.777,6.862,1.726,1.726,0,0,1,1.387,1.688V31.6a2.332,2.332,0,0,0,2.328,2.328h4.984A2.331,2.331,0,0,0,38.383,31.6V26.616a2.224,2.224,0,0,0-.044-.44A.973.973,0,0,0,38.074,25.676Z" transform="translate(-12.003 -11.325)"/><path d="M7.29,24.067a7.29,7.29,0,1,0,7.29,7.29A7.29,7.29,0,0,0,7.29,24.067Zm2.388,8.494H4.9a1.2,1.2,0,1,1,0-2.406H9.679a1.2,1.2,0,1,1,0,2.406Z" transform="translate(0 -16.047)"/></g></svg>