<svg xmlns="http://www.w3.org/2000/svg" xmlns:xlink="http://www.w3.org/1999/xlink" width="197" height="96" viewBox="0 0 197 96"><defs><style>.a{fill:#fff;}.b{clip-path:url(#c);}.c{fill:#6e2169;fill-rule:evenodd;}.d{filter:url(#a);}</style><filter id="a" x="-4" y="-4" width="215" height="114" filterUnits="userSpaceOnUse"><feOffset dx="5" dy="5" input="SourceAlpha"/><feGaussianBlur stdDeviation="3" result="b"/><feFlood flood-opacity="0.11"/><feComposite operator="in" in2="b"/><feComposite in="SourceGraphic"/></filter><clipPath id="c"><g class="d" transform="matrix(1, 0, 0, 1, 0, 0)"><rect class="a" width="197" height="96" rx="10" transform="translate(38 158.11)"/></g></clipPath></defs><g class="b" transform="translate(-38 -158.106)"><g transform="translate(87.658 158)"><path class="c" d="M1839.616,3649.775c-.643-4.387-7.136-18.367-9.359-22.521-1.638-2.983-4.621-8.073-6.493-9.71-3.861-3.276-7.838-2.632-9.944,1.579-1.521,3.159-2.632,9.359-5.674,10.47-3.451,1.229-7.546-5.089-11.173.059-1.989,2.749-2.164,8.365-3.978,12.167-2.223,4.563-5.148,5.089-7.546,8.014Z" transform="translate(-1755.198 -3554.662)"/><path class="c" d="M1504.639,3646.547a19.052,19.052,0,0,0,3.334,3.978c5.966,5.908,15.969,6.668,22.4,1.287,2.047-1.755,4.153-3.51,5.616-6.61,3.627-7.487,0-17.139.175-24.393l-14.214.059c0,40.6-4.914,33.225-3.685-.117l-14.565-.059C1503.528,3628.648,1500.486,3639.469,1504.639,3646.547Z" transform="translate(-1502.465 -3559.331)"/><path class="c" d="M1528.9,3062.494c-1.579-1.4-2.866-3.861-3.919-5.615-1.462-2.34-3.217-4.329-3.51-5.733l14.741-.058C1535.8,3052.667,1530.306,3061.148,1528.9,3062.494Zm-3.919,37.027-11.933.059-.351,5.089,32.114-.059-.175-5.089-11.933.059v-31.938c0-2.983,10.646-17.373,12.635-20.883l-32.933-.058c.936,2.574,5.5,8.423,7.78,12.05,1.287,2.047,4.5,6.142,4.738,7.9Z" transform="translate(-1511.344 -3046.7)"/><path class="c" d="M2228.577,3667.1c-8.189,4.563-.234,11.348,4.212,10.354C2238.638,3676.108,2234.777,3663.648,2228.577,3667.1Z" transform="translate(-2147.785 -3600.24)"/><path class="c" d="M2333.238,3872.8v-1.4c-1.813-1.4-2.457-3.334-4.8-4.036-4.095-1.228-8.423,5.791-2.047,6.961A9.909,9.909,0,0,0,2333.238,3872.8Z" transform="translate(-2235.424 -3779.505)"/><path class="c" d="M2271.132,3818.81c.468,3.042,7.37,5.5,6.493,0-.292-1.579-1.989-3.334-3.627-3.334A2.9,2.9,0,0,0,2271.132,3818.81Z" transform="translate(-2188.937 -3733.29)"/><path class="c" d="M1934.11,3671.06c1.872-2.515.877-4.562-1.813-5.5C1928.085,3667.024,1930.6,3671.177,1934.11,3671.06Z" transform="translate(-1884.379 -3599.403)"/></g></g></svg>