<svg xmlns="http://www.w3.org/2000/svg" width="79.569" height="65.549" viewBox="0 0 79.569 65.549"><defs><style>.a{fill:#6e2169;fill-rule:evenodd;}</style></defs><g transform="translate(-3222.938 -5087.84)"><g transform="translate(3222.938 5087.84)"><path class="a" d="M3330.222,5261.642v20.193l20.425.232v-20.425c2.089,0,4.41.464,5.106-.928.928-2.089-.465-3.482-2.321-3.714H3327.9c-2.089.232-3.714.929-2.785,3.481C3325.812,5262.106,3328.133,5261.642,3330.222,5261.642Z" transform="translate(-3301.194 -5217.736)"/><path class="a" d="M3449.19,5209.82v6.268c-6.266.7-7.195-1.625-8.124,5.57q-.7,6.267-1.393,12.534c-.232,2.321.232,3.714,2.322,3.946,2.552.232,3.017-1.161,3.249-3.482.464-4.177,1.16-8.355,1.625-12.533,3.018-.929,7.427.463,10.212-.7,3.482-1.392,3.25-3.946,3.25-8.124,0-2.089.464-9.284,0-10.909-.7-2.553-4.178-4.642-7.66-3.481-2.089.7-4.178,4.178-5.338,5.8-3.482,4.411-5.338,1.161-8.588,1.393a2.582,2.582,0,0,0-2.089,3.25c.7,2.088,6.268,2.784,8.588,2.321C3447.1,5211.213,3447.8,5210.285,3449.19,5209.82Z" transform="translate(-3386.97 -5172.878)"/><path class="a" d="M3262.5,5222.273c1.857,8.588,0,15.783,4.41,15.783,2.321,0,3.018-1.625,2.786-3.946-2.553-22.049-1.16-17.175-9.516-18.1v-6.266c1.16.464,1.857,1.393,3.714,1.856,2.321.465,7.892-.231,8.588-2.088a2.538,2.538,0,0,0-2.089-3.482c-3.017-.232-5.106,3.018-8.356-1.392-1.16-1.625-3.018-4.875-5.338-5.8-3.714-1.161-6.731.7-7.659,3.25-.464,1.625-.232,8.356-.232,10.677,0,4.178-.464,6.963,3.017,8.588C3254.611,5222.506,3260.646,5221.113,3262.5,5222.273Z" transform="translate(-3242.759 -5172.797)"/><path class="a" d="M3365.075,5154.232c3.481-2.553,3.946,4.643,0,1.857Zm13,2.322c-3.25.7-3.017-2.089-1.857-2.785C3377.609,5152.841,3379.233,5154.232,3378.073,5156.554Zm-5.106,0c-3.25.928-3.25-1.857-2.089-2.785C3372.5,5152.841,3374.127,5154.232,3372.967,5156.554Zm9.748,9.748c.7,0,.464.232.7-.7l-.928-1.625c2.089-1.856,2.089,1.393,2.089-7.195,0-11.374,1.857-9.284-12.766-9.284-3.018,0-9.981-.232-12.534.463-.7,1.858-.7,12.767,0,15.088,2.553,1.392,14.854.232,19.5.464a2.856,2.856,0,0,1,2.322,1.16A10.781,10.781,0,0,1,3382.715,5166.3Zm.929.232v-.232C3383.179,5166.534,3383.179,5166.3,3383.644,5166.534Z" transform="translate(-3327.227 -5133.539)"/><path class="a" d="M3333.944,5096.466c-1.393-3.946,3.714-3.714,2.321,0A2.109,2.109,0,0,1,3333.944,5096.466Zm-5.338,0c-1.393-3.946,3.946-3.714,2.553,0A2.507,2.507,0,0,1,3328.605,5096.466Zm-3.018-2.554c2.553,3.946-4.642,3.713-2.089,0ZM3317,5090.2v11.374c0,2.088.7,2.088,2.089,2.785l-1.161,2.786a16.35,16.35,0,0,0,2.089-1.625c1.857-1.857,2.321-1.393,5.57-1.393,0-2.553,0-3.481,2.553-3.481h14.623c0-3.249.464-9.98-.464-12.3-4.642-.7-17.64-.464-22.979-.464C3317.7,5087.877,3317,5088.574,3317,5090.2Z" transform="translate(-3295.167 -5087.84)"/><path class="a" d="M3498.43,5211.782c-.464,2.321-.232,13.695-.232,17.64,0,2.554-.232,1.857-.232,2.089-1.625.7-10.213,0-12.766.464-1.16,0-1.625,1.16-1.393,2.553.7,2.553,1.161-.232.464,3.48-.232,2.089-.232,7.2.464,8.821,6.267,2.785,1.857-6.963,4.178-9.285,1.393-.928,7.2-.928,8.588,0,1.857,1.393-.464,7.892,1.393,9.285a2.112,2.112,0,0,0,2.785,0c1.393-1.625.464-7.892.232-9.98-.232-1.625.464-.928.7-2.786.232-.928.232-20.425,0-22.05a2.229,2.229,0,0,0-3.481-1.393C3497.967,5211.318,3498.43,5210.854,3498.43,5211.782Z" transform="translate(-3423.214 -5181.804)"/><path class="a" d="M3240.36,5231.955c-3.25-.7-11.141.232-12.534-.464l-.232-.928v-1.393l-.232-17.408a2.02,2.02,0,0,0-3.25-1.161c-1.393.929-1.161,3.018-1.161,4.875v17.176c0,3.249,1.161,2.321.7,4.642-.464,1.857-.928,9.052.929,9.98,4.874.464,2.089-6.035,3.249-9.748,1.393-.7,7.66-.929,8.82,0,2.321,2.321-1.857,12.069,4.41,9.284a34.823,34.823,0,0,0,.232-8.588c-.464-3.714-.232-1.161.464-3.481a2.56,2.56,0,0,0,0-1.857C3241.288,5231.491,3241.288,5231.955,3240.36,5231.955Z" transform="translate(-3222.937 -5181.783)"/><path class="a" d="M3487.236,5144.495a6.2,6.2,0,0,0-4.874,7.66,6.393,6.393,0,0,0,7.659,4.642C3497.681,5154.708,3495.127,5142.871,3487.236,5144.495Z" transform="translate(-3422 -5131.227)"/><path class="a" d="M3258.276,5144.631c-8.124,1.625-5.8,13.926,2.321,12.3C3268.489,5155.308,3266.168,5143.238,3258.276,5144.631Z" transform="translate(-3246.193 -5131.363)"/></g></g></svg>