<svg xmlns="http://www.w3.org/2000/svg" width="17.493" height="17.447" viewBox="0 0 17.493 17.447"><defs><style>.a{fill:#6e2169;fill-rule:evenodd;}</style></defs><g transform="translate(0 0)"><path class="a" d="M1480.781,2463.892a5.656,5.656,0,1,1-1.126-4.37A5.721,5.721,0,0,1,1480.781,2463.892Zm-7.417-7.317a6.427,6.427,0,0,0-4.6,4.569l-.2.794a7.652,7.652,0,0,0,.828,4.437,7.371,7.371,0,0,0,2.748,2.582c5.695,3.046,12.151-3.51,9.006-9.072-1.623-2.914-3.874-3.675-7.019-3.509Z" transform="translate(-1468.548 -2456.354)"/><path class="a" d="M1823.49,2810.688l.066-.132.133-.066c.2-.166.3-.232.5.033l2.152,2.052a.937.937,0,0,1,.3.994c-.761.364-.993-.2-1.722-.894a14.461,14.461,0,0,1-1.424-1.457c-.1-.132-.132.2-.132-.3C1823.357,2810.556,1823.39,2810.788,1823.49,2810.688Zm-1.39-1.589-.1.133v.463l.463.6a1.883,1.883,0,0,0,.464,1.953,28.036,28.036,0,0,0,2.616,2.384,1.614,1.614,0,0,0,1.821-.365c1.192-1.291-.43-2.549-1.026-3.112-1.689-1.722-1.457-1.854-3.179-1.656l-.364-.4-.166-.1-.4.033Z" transform="translate(-1810.297 -2797.324)"/><path class="a" d="M1533.777,2521.313a4.97,4.97,0,0,0-.033,1.391l.662.066c.4-.331.265-.894.464-1.523a3.546,3.546,0,0,1,2.053-2.086,14.282,14.282,0,0,0,1.689-.4c.265-.993-.364-.993-1.291-.795a3.617,3.617,0,0,0-1.622.7A4.407,4.407,0,0,0,1533.777,2521.313Z" transform="translate(-1531.544 -2515.828)"/><path class="a" d="M1563.1,2721.066l-.066.133-.033.5c.3.4.629.4.927.033v-.53l-.1-.133-.165-.066h-.431Z" transform="translate(-1559.873 -2712.238)"/></g></svg>