<svg xmlns="http://www.w3.org/2000/svg" width="60" height="33.235" viewBox="0 0 60 33.235"><defs><style>.a{opacity:0.5;}.b{fill-rule:evenodd;}</style></defs><g class="a" transform="translate(-4176 -2191.28)"><path class="b" d="M4225.177,2197.465l5.885-1.208,2.521,18.231-5.779.052A57.727,57.727,0,0,1,4225.177,2197.465Zm-44.133-2.1,6.042.683c.263,4.729-.946,13.66-2.89,17.811l-5.569-.368Zm15.026,8.511c-3.835-13.5,16.655-10.718,26.479-5.99.473,4.256,1.839,10.3.63,13.345l-9.825-7.2c-11.506-8.459-12.452-3.152-14.5-1.366A4.161,4.161,0,0,1,4196.07,2203.875Zm-2.154,2.049c11.559,2,5.2-8.616,14.869-1.629a31.435,31.435,0,0,0,4.624,2.732c2.627,1.418,7.513,4.308,6.935,7.513-6.147-.473-5.622-4.886-10.666-5.254-.63,5.779,4.361,3.258,7.618,8.2-7.828.525-5.044-3.73-12.347-5.044.63,5.412,1.471,2.207,7.565,7.671-4.729,1.944-6.094-3.468-11.033-4.1.525,4.256-.683.893,4.939,5.937-4.571-.052-6.357-2.469-9.352-4.571l-8.932-5.727,1.786-15.341,4.729-.315C4192.392,2199.934,4192.97,2201.458,4193.916,2205.924Zm-15.289-13.292L4176,2215.7a25.57,25.57,0,0,0,6.83.683c4.676-.315,2.469.42,4.571-2.259l8.144,5.622c9.037,6.2,7.408,5.2,15.656,3.415,3.205-.683,4.781-2.732,8.984-5.727,3.31-2.365,2-.158,3.94-3.993l2.1,3.678,9.142-.157c.1-.21.21-.788.263-.683l.315-1.313c0-.21.053-.42.053-.63l-2.627-20.753c-5.149.315-9.037,2.1-13.292.736-18.074-5.937-18.756-1.418-25.639-.893C4187.979,2193.84,4184.406,2192.684,4178.627,2192.631Z" transform="translate(0 0)"/></g></svg>