<svg xmlns="http://www.w3.org/2000/svg" width="40.733" height="33.021" viewBox="0 0 40.733 33.021"><defs><style>.a{opacity:0.5;}.b{fill-rule:evenodd;}</style></defs><g class="a" transform="translate(-3577 -5394.871)"><g transform="translate(3577 5394.871)"><path class="b" d="M3614.552,5545.857c-1.426,7.35-12.176,5.192-10.86-1.9a5.494,5.494,0,0,1,6.4-4.388A5.589,5.589,0,0,1,3614.552,5545.857Zm-34.407-.365c-.622-7.276,10.275-8.19,10.933-1.061C3591.772,5551.817,3580.73,5552.513,3580.145,5545.492Zm-3.145-1.755v2.157c.219.512.329,1.573.658,2.377a8.645,8.645,0,0,0,13.639,3.181c5.119-4.242,3-13.236-3.181-14.663l-1.024-.329a3.081,3.081,0,0,1,.585,0c.841.073.11-.037.475.146a7.321,7.321,0,0,1,5.3,3.108c1.17,1.755.877,4.388,3.839,4.461,3.071.036,3-3.182,3.985-4.461.878-1.17,3.072-3.218,5.3-3,.329-.512.585-.329,1.06-.146l-1.06.219a8.443,8.443,0,0,0-5.777,5.887,8.875,8.875,0,0,0,2.523,8.7,8.612,8.612,0,0,0,14-3.912l.4-1.17v-2.414L3612.65,5529c-1.682-4.351-6.326-4.79-9.4-1.609-4.315,4.424-1.609,1.1-6,1.134-4.315.073-1.463,3.364-5.887-1.207a5.286,5.286,0,0,0-3.071-1.828,5.106,5.106,0,0,0-6.253,3.51c-.841,2.486-1.646,4.973-2.56,7.422Z" transform="translate(-3577 -5520.55)"/><path class="b" d="M4260.992,5400.214c3.546-2.194,4.607-2.852,9.4-1.207-.658-2.341-2.157-4.461-5.229-4.1A4.516,4.516,0,0,0,4260.992,5400.214Z" transform="translate(-4235.946 -5394.871)"/><path class="b" d="M3749,5404c4.205-1.39,6.508-1.207,9.214,1.389a4.4,4.4,0,0,0-3.839-5.265C3751.194,5399.649,3749.658,5401.624,3749,5404Z" transform="translate(-3742.711 -5399.864)"/><path class="b" d="M4386,5828.277l1.061-.22c-.476-.183-.731-.365-1.061.146Z" transform="translate(-4356.419 -5812.038)"/><path class="b" d="M3854.024,5829.9l.037-.183c-.366-.183.365-.073-.476-.146a3.121,3.121,0,0,0-.585,0Z" transform="translate(-3842.908 -5813.662)"/></g></g></svg>